<svg width="64" height="64" viewBox="0 0 64 64" fill="none" xmlns="http://www.w3.org/2000/svg">
<path d="M47.86 28V4C47.86 3.73478 47.7546 3.48043 47.5671 3.29289C47.3795 3.10536 47.1252 3 46.86 3H41.72C41.4548 3 41.2004 3.10536 41.0129 3.29289C40.8253 3.48043 40.72 3.73478 40.72 4V28C37.3643 28.7198 34.3163 30.4675 32 33C29.6754 30.4779 26.6309 28.7322 23.28 28V4C23.28 3.73478 23.1746 3.48043 22.9871 3.29289C22.7995 3.10536 22.5452 3 22.28 3H17.14C16.8748 3 16.6204 3.10536 16.4329 3.29289C16.2453 3.48043 16.14 3.73478 16.14 4V28C13.5639 28.5491 11.154 29.6995 9.10712 31.3572C7.06019 33.0149 5.43414 35.133 4.3616 37.5387C3.28907 39.9444 2.80044 42.5697 2.93558 45.2002C3.07072 47.8307 3.8258 50.392 5.13922 52.6752C6.45264 54.9583 8.28719 56.8987 10.4932 58.3379C12.6992 59.7771 15.2142 60.6744 17.8331 60.9566C20.4519 61.2389 23.1003 60.898 25.5624 59.9619C28.0244 59.0258 30.2302 57.5209 32 55.57C33.7705 57.5145 35.9752 59.0133 38.4346 59.9445C40.894 60.8757 43.5386 61.213 46.1529 60.9287C48.7673 60.6445 51.2776 59.7469 53.4795 58.3089C55.6813 56.871 57.5124 54.9334 58.8237 52.6539C60.1351 50.3744 60.8895 47.8174 61.0257 45.1911C61.1618 42.5649 60.6758 39.9436 59.6072 37.5407C58.5386 35.1378 56.9177 33.0212 54.8763 31.3633C52.835 29.7054 50.4309 28.553 47.86 28V28ZM42.72 5H45.86V27.65C45.34 27.65 44.86 27.57 44.29 27.57C43.72 27.57 43.29 27.57 42.72 27.66V5ZM19.72 55.29C17.5444 55.29 15.4176 54.6449 13.6087 53.4362C11.7998 52.2275 10.3899 50.5095 9.55729 48.4995C8.72473 46.4895 8.50689 44.2778 8.93133 42.144C9.35577 40.0102 10.4034 38.0502 11.9418 36.5118C13.4802 34.9734 15.4402 33.9258 17.574 33.5014C19.7078 33.0769 21.9195 33.2948 23.9295 34.1273C25.9395 34.9599 27.6574 36.3698 28.8661 38.1787C30.0748 39.9877 30.72 42.1144 30.72 44.29C30.72 45.7354 30.4351 47.1666 29.8817 48.5018C29.3283 49.8371 28.5171 51.0501 27.4946 52.0717C26.4721 53.0933 25.2583 53.9033 23.9226 54.4555C22.5868 55.0078 21.1554 55.2913 19.71 55.29H19.72ZM18.14 5H21.28V27.65C20.76 27.65 20.28 27.57 19.71 27.57C19.14 27.57 18.66 27.57 18.14 27.65V5ZM44.29 55.29C42.5019 55.2874 40.7414 54.8489 39.1609 54.0125C37.5805 53.1761 36.2278 51.967 35.22 50.49C36.8332 46.5141 36.8332 42.0659 35.22 38.09C36.2889 36.5234 37.7448 35.2598 39.4462 34.4219C41.1476 33.5839 43.0367 33.2001 44.9302 33.3077C46.8237 33.4153 48.6572 34.0106 50.2527 35.0359C51.8483 36.0611 53.1516 37.4815 54.0363 39.1591C54.9209 40.8367 55.3568 42.7145 55.3016 44.6103C55.2463 46.506 54.7019 48.3553 53.7211 49.9785C52.7404 51.6018 51.3566 52.9439 49.7041 53.8745C48.0516 54.8052 46.1865 55.2928 44.29 55.29V55.29Z" fill="black"></path>
</svg>