<svg xmlns="http://www.w3.org/2000/svg" xml:space="preserve" width="512px" height="512px" version="1.1" style="shape-rendering:geometricPrecision; text-rendering:geometricPrecision; image-rendering:optimizeQuality; fill-rule:evenodd; clip-rule:evenodd" viewBox="0 0 512 512" xmlns:xlink="http://www.w3.org/1999/xlink">
 <defs>
  <style type="text/css">
   
    .fil0 {fill:black}
   
  </style>
 </defs>
 <g id="Layer_x0020_1">
  <metadata id="CorelCorpID_0Corel-Layer"></metadata>
  <path class="fil0" d="M69 512c-12,0 -24,-5 -33,-14l-22 -22c-9,-9 -14,-21 -14,-33 0,-13 5,-25 14,-34l273 -273c0,0 1,-1 1,-1 1,0 2,-1 3,-1 1,0 2,0 3,0 1,1 1,1 2,1 13,9 30,8 41,-2 3,-3 8,-3 10,0l32 32c3,2 3,7 0,10 -10,11 -11,28 -2,41 0,1 0,1 1,2 0,1 0,2 0,3 0,1 0,2 -1,3 0,0 -1,1 -1,1l-273 273c-9,9 -21,14 -34,14z"></path>
  <path class="fil0" d="M351 119l118 -117c3,-3 7,-3 10,0l31 31c3,3 3,7 0,10l-117 118c-1,-2 -3,-4 -4,-6l-32 -32c-2,-1 -4,-3 -6,-4z"></path>
  <path class="fil0" d="M370 498c-21,0 -41,-8 -55,-21 18,-16 28,-38 28,-63 0,-24 -10,-47 -28,-63 15,-14 35,-21 55,-21 21,0 41,8 56,21 -19,16 -29,39 -29,63 0,25 10,48 28,64 -15,13 -34,20 -55,20zm65 -136c12,14 19,32 19,52 0,20 -7,39 -19,54 -16,-13 -24,-32 -24,-54 0,-20 9,-40 24,-52l0 0zm-130 105c-12,-14 -19,-33 -19,-53 0,-19 7,-38 19,-53l0 0c15,13 24,33 24,53 0,20 -9,40 -24,53 0,0 0,0 0,0z"></path>
 </g>
</svg>