<svg version="1.0" id="Layer_1" xmlns="http://www.w3.org/2000/svg" xmlns:xlink="http://www.w3.org/1999/xlink" x="0px" y="0px" width="100px" height="100px" viewBox="0 0 100 100" enable-background="new 0 0 100 100" xml:space="preserve">
<path d="M80.573,69.427L56.667,45.521V26.667h6.666V20H10v6.667h6.667V80h6.667v-6.667H50V80h6.667V54.948l19.192,19.192
	C79.636,77.92,84.658,80,90,80v-6.667C86.321,73.333,82.988,71.843,80.573,69.427z M36.667,33.333c3.682,0,6.667,2.985,6.667,6.667
	s-2.985,6.667-6.667,6.667S30,43.682,30,40S32.985,33.333,36.667,33.333z M50,66.667H23.333V60H50V66.667z"></path>
</svg>