<svg version="1.1" id="Layer_1" xmlns="http://www.w3.org/2000/svg" xmlns:xlink="http://www.w3.org/1999/xlink" x="0px" y="0px" viewBox="0 0 64 64" style="enable-background:new 0 0 64 64;" xml:space="preserve">
<rect x="6.0564003" y="53.9180527" transform="matrix(0.7070743 -0.7071393 0.7071393 0.7070743 -37.9957466 21.7548637)" width="2.4089277" height="5.6426554"></rect>
<rect x="9.25984" y="51.0083694" transform="matrix(0.7070743 -0.7071393 0.7071393 0.7070743 -35.0857697 22.9601383)" width="1.8216286" height="5.6424394"></rect>
<path d="M49.7382202,15.6754761l3.4949951,3.4951172l3.6608276-3.6608276
	c-0.3397827-1.8214111-1.0807495-3.4486084-2.1865234-4.8036499L49.7382202,15.6754761z"></path>
<path d="M44.2412109,4.1069336c-4.7988281,0.5244141-9.5244141,2.8964844-13.3066406,6.6782227
	c-6.0302734,6.0302734-8.3359375,14.425293-5.7363281,20.8891602c0.8330078,2.0854492,0.3701172,4.4306641-1.1767578,5.9770508
	l-7.1364746,7.1364746l2.3266602,2.3275757l7.1369629-7.1373901c1.5478516-1.5458984,3.8945312-2.0073242,5.9746094-1.1777344
	c6.4667969,2.5991211,14.8603516,0.2944336,20.8916016-5.7348633C60.9619141,25.3178711,62.2675781,14.0180664,56.125,7.8754883
	C53.1796875,4.9296875,48.9560547,3.5874023,44.2412109,4.1069336z M58.9620361,15.859375
	c0.1831055,1.3634644,0.2007446,2.7959595,0.0047607,4.2885742c-0.1907349,1.4544067-0.5772095,2.9000244-1.1089478,4.3166504
	c-0.0199585,0.090332-0.0496826,0.1748047-0.0949707,0.2579346c-1.1290894,2.8919067-2.9248657,5.6430664-5.2941284,8.0123291
	c-2.3956909,2.3956909-5.137085,4.1381836-7.9459229,5.2429199c-0.1045532,0.0631104-0.2129517,0.1046143-0.3295898,0.1260986
	c-2.1884155,0.8188477-4.4102783,1.2613525-6.5418701,1.2613525c-0.6853638,0-1.3566284-0.0571899-2.0184937-0.1439819
	c-0.0152588,0.0006714-0.0296631,0.008728-0.0449829,0.008728c-0.0753784,0-0.1478882-0.0261841-0.2217407-0.0431519
	c-2.7061157-0.4052734-5.1714478-1.5390015-7.0927124-3.4602661c-3.9211426-3.9211426-4.5934448-10.0946045-2.3588257-15.9974976
	c0.0167847-0.0620728,0.0350342-0.1207275,0.0639648-0.1793213c1.1025391-2.8347168,2.8693237-5.6016235,5.2860718-8.0184937
	c2.406189-2.406189,5.1591187-4.1693726,7.9805298-5.2731323c0.1168823-0.0697021,0.2393799-0.1141357,0.3702393-0.132019
	c5.8565063-2.1657104,11.9571533-1.4743042,15.8445435,2.4134521c1.9356079,1.9352417,3.1120605,4.4502563,3.4990234,7.2952271
	C58.9591675,15.8431396,58.9620972,15.8510132,58.9620361,15.859375z"></path>
<rect x="37.5609512" y="25.3306427" transform="matrix(0.7070944 -0.7071191 0.7071191 0.7070944 -7.6188588 37.2108154)" width="7.0918703" height="4.9426265"></rect>
<rect x="39.20327" y="14.2890577" transform="matrix(0.7071201 -0.7070935 0.7070935 0.7071201 0.8038604 35.0975723)" width="7.1326118" height="4.5787148"></rect>
<rect x="32.7806435" y="20.7321606" transform="matrix(0.7071201 -0.7070935 0.7070935 0.7071201 -5.6390958 32.4287758)" width="7.0916977" height="4.5788012"></rect>
<path d="M48.1898804,27.0420532l3.5455322,3.5454102c1.708374-1.8625488,3.0645142-3.9336548,3.980957-6.1054688
	l-2.4831543-2.4832764L48.1898804,27.0420532z"></path>
<path d="M48.3241577,14.2614136l4.975769-4.9758911c-1.2692261-1.0352173-2.7645874-1.72052-4.3898926-2.0852051
	l-3.8234253,3.8234253L48.3241577,14.2614136z"></path>
<path d="M56.4451904,22.3826904c0.2376709-0.8269653,0.4293213-1.6595459,0.5391846-2.4949951
	c0.0786133-0.598877,0.1102905-1.1830444,0.1188354-1.7589722l-2.4559326,2.4559326L56.4451904,22.3826904z"></path>
<path d="M27.3014526,21.8391113c-0.4754639,1.6287842-0.7008667,3.2512817-0.6663208,4.8079834l2.7371216-2.7371216
	L27.3014526,21.8391113z"></path>
<path d="M42.2584839,11.0237427l-2.7282104-2.7283325c-2.1350098,0.901123-4.2171631,2.2382202-6.1126099,3.9747925
	l3.7972412,3.7971191L42.2584839,11.0237427z"></path>
<path d="M35.8008423,17.4813843l-3.802063-3.802002c-1.7242432,1.8818359-3.0584106,3.9500732-3.9594727,6.069397
	l2.7470093,2.7471313L35.8008423,17.4813843z"></path>
<path d="M30.7863159,25.3240356l-3.847168,3.847168c0.3643188,1.6258545,1.0535889,3.1173096,2.0887451,4.3867798
	l4.9960938-4.9961548L30.7863159,25.3240356z"></path>
<path d="M35.4380493,29.9758911l-4.9959717,4.9960327c1.3792114,1.1243286,3.0184326,1.8469238,4.8087158,2.1810913
	l3.6821289-3.6821289L35.4380493,29.9758911z"></path>
<path d="M17.8291016,50.1606445c0.4404297-0.440918,0.4404297-1.1586914,0-1.5996094l-2.3896484-2.3901367
	c-0.4277344-0.4267578-1.171875-0.4277344-1.5996094,0l-3.6060181,3.605835l3.9898682,3.989502L17.8291016,50.1606445z"></path>
<path d="M37.8655396,37.366394c1.399292-0.0196533,2.8441162-0.244751,4.2947998-0.6680298l-1.8133545-1.8134155
	L37.8655396,37.366394z"></path>
<path d="M46.3864746,6.895752c-0.1052856-0.0023804-0.208313-0.0129395-0.314209-0.0129395
	c-1.4450073,0-2.9457397,0.2434082-4.4490356,0.6774292l2.0493164,2.0494385L46.3864746,6.895752z"></path>
<path d="M41.7610474,33.4708862l2.4897461,2.4898071c2.1194458-0.901062,4.1878052-2.2352295,6.0698242-3.9598389
	l-3.5447998-3.5447388L41.7610474,33.4708862z"></path>
<rect x="43.9837532" y="18.887455" transform="matrix(0.7071191 -0.7070944 0.7070944 0.7071191 -1.1762186 39.8779068)" width="7.1324391" height="4.9427128"></rect>
<path d="M50.4238281,47.7705078c0-2.6240234-2.1347656-4.7587891-4.7597656-4.7587891
	c-2.6240234,0-4.7587891,2.1347656-4.7587891,4.7587891c0,2.6245117,2.1347656,4.7592773,4.7587891,4.7592773
	C48.2890625,52.5297852,50.4238281,50.3950195,50.4238281,47.7705078z"></path>
</svg>