<svg version="1.1" id="Layer_1" xmlns="http://www.w3.org/2000/svg" xmlns:xlink="http://www.w3.org/1999/xlink" x="0px" y="0px" viewBox="0 0 64 64" enable-background="new 0 0 64 64" xml:space="preserve">
<path d="M26,37.1c2.3,1.3,4.3,3.2,5.7,5.4L32,37h-6.1L26,37.1z"></path>
<polygon points="34,37 33.2,56 40.8,56 40,37 "></polygon>
<polygon points="33.1,58 33,60 41,60 40.9,58 "></polygon>
<polygon points="12.2,58.5 20,60.2 20.4,57.9 12.8,56.2 "></polygon>
<path d="M16.1,35.8l-6-1.3l0.1,0.1c2,1.8,3.5,4,4.5,6.5L16.1,35.8z"></path>
<path d="M16,23c0-8,4.5-15,11.1-18.5C17.2,2.8,7.6,9.2,5.4,19.2c-0.9,4.2-0.3,8.7,1.7,12.7l12.4,2.7C17.3,31.1,16,27.1,16,23z"></path>
<path d="M25,43.3c0.9-0.9,1.9-1.7,3-2.3c-0.7-0.7-1.4-1.2-2.3-1.8L25,43.3z"></path>
<polygon points="18,36.2 13.3,54.3 20.7,55.9 23.9,38.2 21.7,37 "></polygon>
<path d="M50,14c0-1.4,0.5-2.6,1.2-3.6C47.6,6.3,42.5,4,37,4c-10.5,0-19,8.5-19,19c0,4.3,1.6,8.5,4.4,12h29.3c2.8-3.4,4.4-7.7,4.4-12
	c0-1-0.1-2-0.3-3C52.6,19.8,50,17.2,50,14z M37,29h-2v-2h2V29z M48,15h-1c-5.5,0-10,4.5-10,10h-2c0-6.6,5.4-12,12-12h1V15z"></path>
<circle cx="56" cy="14" r="4"></circle>
<path d="M42.3,42.5c1.4-2.2,3.4-4.1,5.7-5.4l0.2-0.1H42L42.3,42.5z"></path>
</svg>